<?xml version="1.0" encoding="UTF-8" standalone="no"?>
<!DOCTYPE svg PUBLIC "-//W3C//DTD SVG 1.1//EN" "http://www.w3.org/Graphics/SVG/1.1/DTD/svg11.dtd">
<svg xmlns="http://www.w3.org/2000/svg" version="1.1" viewBox="0 0 512 512">
<g stroke-width="2.00" fill="none" stroke-linecap="butt">
<path stroke="#f6e390" vector-effect="non-scaling-stroke" d="
  M 38.00 357.29
  L 29.75 380.71"
/>
<path stroke="#808080" vector-effect="non-scaling-stroke" d="
  M 29.75 380.71
  Q 22.23 378.89 20.21 385.99
  Q 4.95 439.62 0.22 497.01
  C -1.06 512.54 18.87 517.50 24.88 503.59
  C 69.42 400.54 130.62 306.72 218.76 235.51
  Q 268.95 194.96 327.87 168.63
  Q 329.60 167.85 329.26 169.72
  Q 327.62 178.70 326.11 187.97
  Q 324.89 195.45 325.37 198.58
  C 326.75 207.62 336.06 214.56 344.86 213.61
  Q 348.84 213.19 357.99 208.36
  Q 379.37 197.10 400.32 186.19
  A 0.99 0.97 -44.4 0 1 401.25 186.19
  Q 420.89 196.54 440.54 206.83
  Q 451.88 212.76 454.02 213.30
  C 464.08 215.80 475.27 207.98 476.21 197.38
  C 476.60 192.96 474.96 185.27 474.18 181.31
  Q 472.92 174.96 465.83 175.26"
/>
<path stroke="#f9ef80" vector-effect="non-scaling-stroke" d="
  M 465.83 175.26
  L 461.50 150.29"
/>
<path stroke="#808080" vector-effect="non-scaling-stroke" d="
  M 461.50 150.29
  Q 469.26 147.83 467.18 140.30
  Q 466.53 137.96 468.27 136.27
  Q 485.47 119.52 502.53 102.82
  Q 508.85 96.63 510.42 93.32
  C 514.61 84.45 509.65 72.52 500.55 69.11
  Q 498.85 68.47 486.47 66.62
  Q 464.59 63.33 442.16 60.13
  A 1.04 1.01 80.5 0 1 441.41 59.58
  Q 430.85 38.50 420.24 16.91
  C 418.19 12.73 416.15 7.87 413.07 4.94
  C 403.83 -3.86 389.68 0.07 384.01 11.34
  Q 371.76 35.72 360.16 59.55
  A 1.02 1.00 8.3 0 1 359.40 60.10
  Q 334.36 63.81 310.01 67.36
  Q 301.59 68.59 298.38 70.48
  C 291.18 74.71 287.76 84.71 290.77 92.48
  Q 292.13 95.97 297.59 101.48
  Q 304.09 108.04 310.60 114.32
  Q 311.93 115.61 310.12 116.02
  Q 233.55 133.26 165.58 172.34
  Q 87.68 217.13 32.07 289.81
  C 27.50 295.79 28.77 304.44 34.93 308.52
  C 39.18 311.34 45.64 311.09 50.76 310.49
  Q 52.78 310.26 51.73 312.00
  Q 42.66 327.07 35.20 344.32
  C 32.81 349.85 31.72 354.39 38.00 357.29"
/>
<path stroke="#796f01" vector-effect="non-scaling-stroke" d="
  M 461.50 150.29
  Q 454.33 150.85 452.75 144.54
  Q 450.02 133.59 458.22 125.47
  Q 476.75 107.13 495.38 88.88
  Q 498.44 85.88 495.43 83.22
  A 1.07 1.04 -19.1 0 0 494.92 82.98
  Q 469.85 79.28 444.75 75.65
  C 430.81 73.63 429.32 68.90 422.84 55.93
  Q 413.44 37.11 404.22 18.20
  C 399.62 8.75 394.66 23.45 393.41 26.20"
/>
<path stroke="#807500" vector-effect="non-scaling-stroke" d="
  M 393.41 26.20
  Q 384.44 44.03 375.70 61.79
  C 369.77 73.85 365.07 74.36 351.24 76.42
  Q 330.49 79.51 309.74 82.50
  C 303.52 83.40 302.99 86.00 307.31 90.18
  Q 324.38 106.72 341.30 123.42
  C 347.09 129.14 350.46 134.11 349.14 141.93
  Q 344.71 168.15 340.21 194.36
  C 339.38 199.15 342.98 199.37 346.31 197.61
  Q 364.92 187.80 383.50 177.96"
/>
<path stroke="#796f01" vector-effect="non-scaling-stroke" d="
  M 383.50 177.96
  C 392.33 173.14 400.01 168.67 408.44 173.06
  Q 432.85 185.79 457.22 198.68
  A 0.99 0.95 55.7 0 0 457.79 198.80
  C 467.84 197.76 451.13 178.08 465.83 175.26"
/>
<path stroke="#776310" vector-effect="non-scaling-stroke" d="
  M 29.75 380.71
  Q 35.35 382.69 35.00 388.71"
/>
<path stroke="#745e00" vector-effect="non-scaling-stroke" d="
  M 35.00 388.71
  Q 22.22 433.72 16.90 480.91
  Q 16.31 486.14 18.43 481.33
  Q 56.22 395.35 113.70 321.43
  C 171.48 247.13 244.87 187.14 331.81 150.60
  A 0.98 0.96 89.5 0 0 332.35 150.04
  Q 333.39 147.32 333.32 143.62"
/>
<path stroke="#776310" vector-effect="non-scaling-stroke" d="
  M 333.32 143.62
  Q 334.44 141.35 334.26 137.95
  A 0.99 0.98 -69.6 0 0 333.96 137.29
  L 325.18 128.56
  A 1.00 0.99 -28.2 0 0 324.27 128.29
  Q 240.90 145.24 170.07 187.07
  Q 98.64 229.25 47.42 294.44
  Q 46.41 295.73 48.05 295.74
  Q 51.78 295.75 55.61 295.76
  C 66.04 295.79 72.92 305.99 67.14 315.42
  Q 56.69 332.48 48.73 350.79
  C 46.46 356.01 43.96 359.13 38.00 357.29"
/>
<path stroke="#f9e401" vector-effect="non-scaling-stroke" d="
  M 383.50 177.96
  L 382.93 175.83
  A 1.02 1.00 -34.1 0 1 383.11 174.95
  C 416.95 131.80 421.20 73.70 393.41 26.20"
/>
<path stroke="#eac110" vector-effect="non-scaling-stroke" d="
  M 333.32 143.62
  Q 268.29 164.06 208.10 204.63
  C 141.69 249.40 86.04 309.95 42.93 377.19
  Q 38.90 383.48 36.40 388.85
  A 0.51 0.51 0.0 0 1 35.59 389.01
  Q 35.35 388.79 35.00 388.71"
/>
<path stroke="#808080" vector-effect="non-scaling-stroke" d="
  M 344.2696 48.8289
  A 7.47 7.20 91.0 0 0 351.5989 41.4857
  A 7.47 7.20 91.0 0 0 344.5304 33.8911
  A 7.47 7.20 91.0 0 0 337.2011 41.2343
  A 7.47 7.20 91.0 0 0 344.2696 48.8289"
/>
<path stroke="#808080" vector-effect="non-scaling-stroke" d="
  M 456.3560 49.8100
  A 7.46 7.19 89.8 0 0 463.5200 42.3249
  A 7.46 7.19 89.8 0 0 456.3040 34.8900
  A 7.46 7.19 89.8 0 0 449.1400 42.3751
  A 7.46 7.19 89.8 0 0 456.3560 49.8100"
/>
<path stroke="#808080" vector-effect="non-scaling-stroke" d="
  M 164.58 138.16
  C 161.12 143.79 167.45 151.77 173.71 148.73
  Q 219.52 126.50 265.05 114.76
  Q 268.63 113.84 270.10 112.52
  C 275.50 107.70 271.09 97.93 263.51 99.78
  Q 215.75 111.40 169.86 134.00
  Q 165.94 135.94 164.58 138.16"
/>
<path stroke="#808080" vector-effect="non-scaling-stroke" d="
  M 488.5264 152.3086
  A 7.48 7.20 91.1 0 0 495.8687 144.9682
  A 7.48 7.20 91.1 0 0 488.8136 137.3514
  A 7.48 7.20 91.1 0 0 481.4713 144.6918
  A 7.48 7.20 91.1 0 0 488.5264 152.3086"
/>
<path stroke="#808080" vector-effect="non-scaling-stroke" d="
  M 140.39 165.83
  C 143.55 159.67 136.32 152.40 129.92 156.42
  Q 114.71 165.95 100.68 177.14
  Q 97.44 179.72 96.62 181.16
  C 93.84 185.98 98.25 192.66 103.74 192.11
  Q 105.97 191.88 108.70 189.73
  Q 121.49 179.64 135.19 170.74
  Q 139.23 168.11 140.39 165.83"
/>
<path stroke="#808080" vector-effect="non-scaling-stroke" d="
  M 408.04 209.98
  A 7.33 7.33 0.0 0 0 400.71 202.65
  A 7.33 7.33 0.0 0 0 393.38 209.98
  A 7.33 7.33 0.0 0 0 400.71 217.31
  A 7.33 7.33 0.0 0 0 408.04 209.98"
/>
<path stroke="#808080" vector-effect="non-scaling-stroke" d="
  M 142.64 337.17
  C 140.23 342.51 147.12 349.04 152.42 346.66
  Q 154.33 345.81 157.42 342.08
  C 177.54 317.91 198.41 294.47 220.98 273.76
  Q 224.26 270.75 224.98 268.39
  C 226.96 261.87 218.49 255.62 213.21 260.46
  Q 179.95 290.99 146.98 331.38
  Q 143.10 336.13 142.64 337.17"
/>
<path stroke="#808080" vector-effect="non-scaling-stroke" d="
  M 71.85 447.55
  C 71.26 453.09 78.48 457.57 82.95 454.71
  Q 84.83 453.50 87.14 449.09
  Q 106.19 412.63 130.95 376.94
  C 137.17 367.97 125.08 359.51 119.19 367.69
  Q 95.26 400.96 74.19 441.64
  Q 72.03 445.81 71.85 447.55"
/>
</g>
<path fill="#ffffff" d="
  M 0.00 0.00
  L 512.00 0.00
  L 512.00 512.00
  L 0.00 512.00
  L 0.00 0.00
  Z
  M 38.00 357.29
  L 29.75 380.71
  Q 22.23 378.89 20.21 385.99
  Q 4.95 439.62 0.22 497.01
  C -1.06 512.54 18.87 517.50 24.88 503.59
  C 69.42 400.54 130.62 306.72 218.76 235.51
  Q 268.95 194.96 327.87 168.63
  Q 329.60 167.85 329.26 169.72
  Q 327.62 178.70 326.11 187.97
  Q 324.89 195.45 325.37 198.58
  C 326.75 207.62 336.06 214.56 344.86 213.61
  Q 348.84 213.19 357.99 208.36
  Q 379.37 197.10 400.32 186.19
  A 0.99 0.97 -44.4 0 1 401.25 186.19
  Q 420.89 196.54 440.54 206.83
  Q 451.88 212.76 454.02 213.30
  C 464.08 215.80 475.27 207.98 476.21 197.38
  C 476.60 192.96 474.96 185.27 474.18 181.31
  Q 472.92 174.96 465.83 175.26
  L 461.50 150.29
  Q 469.26 147.83 467.18 140.30
  Q 466.53 137.96 468.27 136.27
  Q 485.47 119.52 502.53 102.82
  Q 508.85 96.63 510.42 93.32
  C 514.61 84.45 509.65 72.52 500.55 69.11
  Q 498.85 68.47 486.47 66.62
  Q 464.59 63.33 442.16 60.13
  A 1.04 1.01 80.5 0 1 441.41 59.58
  Q 430.85 38.50 420.24 16.91
  C 418.19 12.73 416.15 7.87 413.07 4.94
  C 403.83 -3.86 389.68 0.07 384.01 11.34
  Q 371.76 35.72 360.16 59.55
  A 1.02 1.00 8.3 0 1 359.40 60.10
  Q 334.36 63.81 310.01 67.36
  Q 301.59 68.59 298.38 70.48
  C 291.18 74.71 287.76 84.71 290.77 92.48
  Q 292.13 95.97 297.59 101.48
  Q 304.09 108.04 310.60 114.32
  Q 311.93 115.61 310.12 116.02
  Q 233.55 133.26 165.58 172.34
  Q 87.68 217.13 32.07 289.81
  C 27.50 295.79 28.77 304.44 34.93 308.52
  C 39.18 311.34 45.64 311.09 50.76 310.49
  Q 52.78 310.26 51.73 312.00
  Q 42.66 327.07 35.20 344.32
  C 32.81 349.85 31.72 354.39 38.00 357.29
  Z
  M 344.2696 48.8289
  A 7.47 7.20 91.0 0 0 351.5989 41.4857
  A 7.47 7.20 91.0 0 0 344.5304 33.8911
  A 7.47 7.20 91.0 0 0 337.2011 41.2343
  A 7.47 7.20 91.0 0 0 344.2696 48.8289
  Z
  M 456.3560 49.8100
  A 7.46 7.19 89.8 0 0 463.5200 42.3249
  A 7.46 7.19 89.8 0 0 456.3040 34.8900
  A 7.46 7.19 89.8 0 0 449.1400 42.3751
  A 7.46 7.19 89.8 0 0 456.3560 49.8100
  Z
  M 164.58 138.16
  C 161.12 143.79 167.45 151.77 173.71 148.73
  Q 219.52 126.50 265.05 114.76
  Q 268.63 113.84 270.10 112.52
  C 275.50 107.70 271.09 97.93 263.51 99.78
  Q 215.75 111.40 169.86 134.00
  Q 165.94 135.94 164.58 138.16
  Z
  M 488.5264 152.3086
  A 7.48 7.20 91.1 0 0 495.8687 144.9682
  A 7.48 7.20 91.1 0 0 488.8136 137.3514
  A 7.48 7.20 91.1 0 0 481.4713 144.6918
  A 7.48 7.20 91.1 0 0 488.5264 152.3086
  Z
  M 140.39 165.83
  C 143.55 159.67 136.32 152.40 129.92 156.42
  Q 114.71 165.95 100.68 177.14
  Q 97.44 179.72 96.62 181.16
  C 93.84 185.98 98.25 192.66 103.74 192.11
  Q 105.97 191.88 108.70 189.73
  Q 121.49 179.64 135.19 170.74
  Q 139.23 168.11 140.39 165.83
  Z
  M 408.04 209.98
  A 7.33 7.33 0.0 0 0 400.71 202.65
  A 7.33 7.33 0.0 0 0 393.38 209.98
  A 7.33 7.33 0.0 0 0 400.71 217.31
  A 7.33 7.33 0.0 0 0 408.04 209.98
  Z
  M 142.64 337.17
  C 140.23 342.51 147.12 349.04 152.42 346.66
  Q 154.33 345.81 157.42 342.08
  C 177.54 317.91 198.41 294.47 220.98 273.76
  Q 224.26 270.75 224.98 268.39
  C 226.96 261.87 218.49 255.62 213.21 260.46
  Q 179.95 290.99 146.98 331.38
  Q 143.10 336.13 142.64 337.17
  Z
  M 71.85 447.55
  C 71.26 453.09 78.48 457.57 82.95 454.71
  Q 84.83 453.50 87.14 449.09
  Q 106.19 412.63 130.95 376.94
  C 137.17 367.97 125.08 359.51 119.19 367.69
  Q 95.26 400.96 74.19 441.64
  Q 72.03 445.81 71.85 447.55
  Z"
/>
<path fill="#000000" d="
  M 461.50 150.29
  Q 454.33 150.85 452.75 144.54
  Q 450.02 133.59 458.22 125.47
  Q 476.75 107.13 495.38 88.88
  Q 498.44 85.88 495.43 83.22
  A 1.07 1.04 -19.1 0 0 494.92 82.98
  Q 469.85 79.28 444.75 75.65
  C 430.81 73.63 429.32 68.90 422.84 55.93
  Q 413.44 37.11 404.22 18.20
  C 399.62 8.75 394.66 23.45 393.41 26.20
  Q 384.44 44.03 375.70 61.79
  C 369.77 73.85 365.07 74.36 351.24 76.42
  Q 330.49 79.51 309.74 82.50
  C 303.52 83.40 302.99 86.00 307.31 90.18
  Q 324.38 106.72 341.30 123.42
  C 347.09 129.14 350.46 134.11 349.14 141.93
  Q 344.71 168.15 340.21 194.36
  C 339.38 199.15 342.98 199.37 346.31 197.61
  Q 364.92 187.80 383.50 177.96
  C 392.33 173.14 400.01 168.67 408.44 173.06
  Q 432.85 185.79 457.22 198.68
  A 0.99 0.95 55.7 0 0 457.79 198.80
  C 467.84 197.76 451.13 178.08 465.83 175.26
  Q 472.92 174.96 474.18 181.31
  C 474.96 185.27 476.60 192.96 476.21 197.38
  C 475.27 207.98 464.08 215.80 454.02 213.30
  Q 451.88 212.76 440.54 206.83
  Q 420.89 196.54 401.25 186.19
  A 0.99 0.97 -44.4 0 0 400.32 186.19
  Q 379.37 197.10 357.99 208.36
  Q 348.84 213.19 344.86 213.61
  C 336.06 214.56 326.75 207.62 325.37 198.58
  Q 324.89 195.45 326.11 187.97
  Q 327.62 178.70 329.26 169.72
  Q 329.60 167.85 327.87 168.63
  Q 268.95 194.96 218.76 235.51
  C 130.62 306.72 69.42 400.54 24.88 503.59
  C 18.87 517.50 -1.06 512.54 0.22 497.01
  Q 4.95 439.62 20.21 385.99
  Q 22.23 378.89 29.75 380.71
  Q 35.35 382.69 35.00 388.71
  Q 22.22 433.72 16.90 480.91
  Q 16.31 486.14 18.43 481.33
  Q 56.22 395.35 113.70 321.43
  C 171.48 247.13 244.87 187.14 331.81 150.60
  A 0.98 0.96 89.5 0 0 332.35 150.04
  Q 333.39 147.32 333.32 143.62
  Q 334.44 141.35 334.26 137.95
  A 0.99 0.98 -69.6 0 0 333.96 137.29
  L 325.18 128.56
  A 1.00 0.99 -28.2 0 0 324.27 128.29
  Q 240.90 145.24 170.07 187.07
  Q 98.64 229.25 47.42 294.44
  Q 46.41 295.73 48.05 295.74
  Q 51.78 295.75 55.61 295.76
  C 66.04 295.79 72.92 305.99 67.14 315.42
  Q 56.69 332.48 48.73 350.79
  C 46.46 356.01 43.96 359.13 38.00 357.29
  C 31.72 354.39 32.81 349.85 35.20 344.32
  Q 42.66 327.07 51.73 312.00
  Q 52.78 310.26 50.76 310.49
  C 45.64 311.09 39.18 311.34 34.93 308.52
  C 28.77 304.44 27.50 295.79 32.07 289.81
  Q 87.68 217.13 165.58 172.34
  Q 233.55 133.26 310.12 116.02
  Q 311.93 115.61 310.60 114.32
  Q 304.09 108.04 297.59 101.48
  Q 292.13 95.97 290.77 92.48
  C 287.76 84.71 291.18 74.71 298.38 70.48
  Q 301.59 68.59 310.01 67.36
  Q 334.36 63.81 359.40 60.10
  A 1.02 1.00 8.3 0 0 360.16 59.55
  Q 371.76 35.72 384.01 11.34
  C 389.68 0.07 403.83 -3.86 413.07 4.94
  C 416.15 7.87 418.19 12.73 420.24 16.91
  Q 430.85 38.50 441.41 59.58
  A 1.04 1.01 80.5 0 0 442.16 60.13
  Q 464.59 63.33 486.47 66.62
  Q 498.85 68.47 500.55 69.11
  C 509.65 72.52 514.61 84.45 510.42 93.32
  Q 508.85 96.63 502.53 102.82
  Q 485.47 119.52 468.27 136.27
  Q 466.53 137.96 467.18 140.30
  Q 469.26 147.83 461.50 150.29
  Z"
/>
<path fill="#f2de01" d="
  M 461.50 150.29
  L 465.83 175.26
  C 451.13 178.08 467.84 197.76 457.79 198.80
  A 0.99 0.95 55.7 0 1 457.22 198.68
  Q 432.85 185.79 408.44 173.06
  C 400.01 168.67 392.33 173.14 383.50 177.96
  L 382.93 175.83
  A 1.02 1.00 -34.1 0 1 383.11 174.95
  C 416.95 131.80 421.20 73.70 393.41 26.20
  C 394.66 23.45 399.62 8.75 404.22 18.20
  Q 413.44 37.11 422.84 55.93
  C 429.32 68.90 430.81 73.63 444.75 75.65
  Q 469.85 79.28 494.92 82.98
  A 1.07 1.04 -19.1 0 1 495.43 83.22
  Q 498.44 85.88 495.38 88.88
  Q 476.75 107.13 458.22 125.47
  Q 450.02 133.59 452.75 144.54
  Q 454.33 150.85 461.50 150.29
  Z"
/>
<path fill="#ffea00" d="
  M 393.41 26.20
  C 421.20 73.70 416.95 131.80 383.11 174.95
  A 1.02 1.00 -34.1 0 0 382.93 175.83
  L 383.50 177.96
  Q 364.92 187.80 346.31 197.61
  C 342.98 199.37 339.38 199.15 340.21 194.36
  Q 344.71 168.15 349.14 141.93
  C 350.46 134.11 347.09 129.14 341.30 123.42
  Q 324.38 106.72 307.31 90.18
  C 302.99 86.00 303.52 83.40 309.74 82.50
  Q 330.49 79.51 351.24 76.42
  C 365.07 74.36 369.77 73.85 375.70 61.79
  Q 384.44 44.03 393.41 26.20
  Z"
/>
<ellipse fill="#000000" cx="0.00" cy="0.00" transform="translate(344.40,41.36) rotate(91.0)" rx="7.47" ry="7.20"/>
<ellipse fill="#000000" cx="0.00" cy="0.00" transform="translate(456.33,42.35) rotate(89.8)" rx="7.46" ry="7.19"/>
<path fill="#000000" d="
  M 173.71 148.73
  C 167.45 151.77 161.12 143.79 164.58 138.16
  Q 165.94 135.94 169.86 134.00
  Q 215.75 111.40 263.51 99.78
  C 271.09 97.93 275.50 107.70 270.10 112.52
  Q 268.63 113.84 265.05 114.76
  Q 219.52 126.50 173.71 148.73
  Z"
/>
<path fill="#edc620" d="
  M 333.32 143.62
  Q 268.29 164.06 208.10 204.63
  C 141.69 249.40 86.04 309.95 42.93 377.19
  Q 38.90 383.48 36.40 388.85
  A 0.51 0.51 0.0 0 1 35.59 389.01
  Q 35.35 388.79 35.00 388.71
  Q 35.35 382.69 29.75 380.71
  L 38.00 357.29
  C 43.96 359.13 46.46 356.01 48.73 350.79
  Q 56.69 332.48 67.14 315.42
  C 72.92 305.99 66.04 295.79 55.61 295.76
  Q 51.78 295.75 48.05 295.74
  Q 46.41 295.73 47.42 294.44
  Q 98.64 229.25 170.07 187.07
  Q 240.90 145.24 324.27 128.29
  A 1.00 0.99 -28.2 0 1 325.18 128.56
  L 333.96 137.29
  A 0.99 0.98 -69.6 0 1 334.26 137.95
  Q 334.44 141.35 333.32 143.62
  Z"
/>
<ellipse fill="#000000" cx="0.00" cy="0.00" transform="translate(488.67,144.83) rotate(91.1)" rx="7.48" ry="7.20"/>
<path fill="#e7bb00" d="
  M 333.32 143.62
  Q 333.39 147.32 332.35 150.04
  A 0.98 0.96 89.5 0 1 331.81 150.60
  C 244.87 187.14 171.48 247.13 113.70 321.43
  Q 56.22 395.35 18.43 481.33
  Q 16.31 486.14 16.90 480.91
  Q 22.22 433.72 35.00 388.71
  Q 35.35 388.79 35.59 389.01
  A 0.51 0.51 0.0 0 0 36.40 388.85
  Q 38.90 383.48 42.93 377.19
  C 86.04 309.95 141.69 249.40 208.10 204.63
  Q 268.29 164.06 333.32 143.62
  Z"
/>
<path fill="#000000" d="
  M 129.92 156.42
  C 136.32 152.40 143.55 159.67 140.39 165.83
  Q 139.23 168.11 135.19 170.74
  Q 121.49 179.64 108.70 189.73
  Q 105.97 191.88 103.74 192.11
  C 98.25 192.66 93.84 185.98 96.62 181.16
  Q 97.44 179.72 100.68 177.14
  Q 114.71 165.95 129.92 156.42
  Z"
/>
<circle fill="#000000" cx="400.71" cy="209.98" r="7.33"/>
<path fill="#000000" d="
  M 152.42 346.66
  C 147.12 349.04 140.23 342.51 142.64 337.17
  Q 143.10 336.13 146.98 331.38
  Q 179.95 290.99 213.21 260.46
  C 218.49 255.62 226.96 261.87 224.98 268.39
  Q 224.26 270.75 220.98 273.76
  C 198.41 294.47 177.54 317.91 157.42 342.08
  Q 154.33 345.81 152.42 346.66
  Z"
/>
<path fill="#000000" d="
  M 82.95 454.71
  C 78.48 457.57 71.26 453.09 71.85 447.55
  Q 72.03 445.81 74.19 441.64
  Q 95.26 400.96 119.19 367.69
  C 125.08 359.51 137.17 367.97 130.95 376.94
  Q 106.19 412.63 87.14 449.09
  Q 84.83 453.50 82.95 454.71
  Z"
/>
</svg>
